<?xml version="1.0" encoding="UTF-8" standalone="no"?>
<svg
   xmlns:dc="http://purl.org/dc/elements/1.1/"
   xmlns:cc="http://creativecommons.org/ns#"
   xmlns:rdf="http://www.w3.org/1999/02/22-rdf-syntax-ns#"
   xmlns:svg="http://www.w3.org/2000/svg"
   xmlns="http://www.w3.org/2000/svg"
   xmlns:sodipodi="http://sodipodi.sourceforge.net/DTD/sodipodi-0.dtd"
   xmlns:inkscape="http://www.inkscape.org/namespaces/inkscape"
   width="11.90625mm"
   height="11.90625mm"
   viewBox="0 0 11.90625 11.90625"
   version="1.1"
   id="svg8"
   inkscape:version="0.92.2 (5c3e80d, 2017-08-06)"
   sodipodi:docname="icon-accessibility_n.svg">
  <defs
     id="defs2" />
  <g
     inkscape:label="Layer 1"
     inkscape:groupmode="layer"
     id="layer1"
     transform="translate(-119.12988,-137.73784)">
    <rect
       style="fill:#1568d8;stroke-width:0.26458332"
       id="Rectangle"
       x="119.12988"
       y="137.73784"
       width="11.90625"
       height="11.90625"
       rx="3.0427084" />
    <g
       id="icon-accessibility"
       transform="matrix(0.06352066,0,0,0.07120476,121.94473,138.99662)"
       width="45px"
       height="45px">
      <path
         inkscape:connector-curvature="0"
         d="m 71.6,131.3 c 1,0 2.1,-0.3 3.1,-0.8 3.9,-1.8 5.5,-6.2 3.6,-10.1 0,0 -14.3,-32.7 -16.9,-44.7 -1,-4.2 -1.6,-15.3 -1.8,-20.5 0,-1.8 1,-3.4 2.6,-3.9 l 32,-9.6 c 3.9,-1 6.2,-5.5 5.2,-9.4 -1,-3.9 -5.5,-6.2 -9.4,-5.2 0,0 -29.6,9.6 -40.3,9.6 C 39.3,36.7 9.9,27.3 9.9,27.3 6,26.3 1.6,28.1 0.3,32 c -1.3,4.2 1,8.6 5.2,9.6 l 32,9.6 c 1.6,0.5 2.9,2.1 2.6,3.9 -0.3,5.2 -0.8,16.4 -1.8,20.5 -2.6,12 -16.9,44.7 -16.9,44.7 -1.8,3.9 0,8.3 3.6,10.1 1,0.5 2.1,0.8 3.1,0.8 2.9,0 5.7,-1.6 6.8,-4.4 L 50.2,95.6 64.8,127 c 1.3,2.7 3.9,4.3 6.8,4.3 z"
         style="fill:#ffffff"
         id="path3736" />
      <circle
         style="fill:#ffffff"
         cx="50.299999"
         cy="14.6"
         r="14.6"
         id="circle3738" />
    </g>
  </g>
</svg>
