<svg xmlns="http://www.w3.org/2000/svg" width="38" height="38" viewBox="0 0 38 38" fill="none"><path d="M37.8059 9.25993C37.6318 5.52358 35.9011 3.51414 35.3755 2.98718C32.4731 0 29.0768 0 19.0002 0C8.92049 0 5.52416 3.78426e-07 2.61868 2.99194C2.09775 3.51573 0.365542 5.52834 0.191371 9.25834C0.0488676 12.3519 -0.0303007 17.6786 0.0108669 19.0167C-0.0287173 20.3214 0.0488676 25.6481 0.191371 28.7417C0.365542 32.4732 2.09775 34.4859 2.62343 35.0144C5.52416 38 8.92049 38 19.0002 38C29.0784 38 32.4731 38 35.3802 35.0097C35.9011 34.4875 37.6318 32.478 37.8059 28.7417C37.9532 25.6608 38.0292 20.3293 37.9896 18.9849C38.0292 17.6723 37.9532 12.3423 37.8059 9.25993ZM19.0002 29.1543C13.3951 29.1543 8.83658 24.5831 8.83658 18.9659C8.83658 13.3471 13.3951 8.77741 19.0002 8.77741C24.6054 8.77741 29.1655 13.3471 29.1655 18.9659C29.1655 24.5847 24.6038 29.1543 19.0002 29.1543ZM30.1598 10.3742C28.7158 10.3742 27.5394 9.19644 27.5394 7.7473C27.5394 6.29974 28.7158 5.12201 30.1598 5.12201C31.6039 5.12201 32.7771 6.29974 32.7771 7.7473C32.7771 9.19644 31.6039 10.3742 30.1598 10.3742Z" fill="#333333"></path><path d="M18.9992 11C14.5875 11 11 14.5914 11 19.0008C11 23.4134 14.5859 27 18.9992 27C23.4093 27 27 23.4134 27 19.0008C27 14.5914 23.4093 11 18.9992 11Z" fill="#333333"></path></svg>