<svg xmlns="http://www.w3.org/2000/svg" width="38" height="44" viewBox="0 0 38 44" fill="none"><path d="M27.7126 1.81627C27.6636 1.53293 27.6255 1.24778 27.5982 0.957174V0H20.0898V29.7995C20.0789 33.2722 17.2564 36.0857 13.7764 36.0857C12.7539 36.0857 11.7912 35.8405 10.9376 35.4118C8.87612 34.3729 7.46487 32.2406 7.46487 29.7777C7.46487 26.2941 10.2928 23.4698 13.7764 23.4698C14.4448 23.4698 15.0896 23.5716 15.6926 23.7623V17.8267V16.1357C15.066 16.0504 14.4357 16.0068 13.8 16.0068C6.17896 16.0068 0 22.1803 0 29.7977C0 34.5727 2.42835 38.7774 6.11538 41.2529L6.1172 41.2548C8.31307 42.7314 10.9557 43.5887 13.7982 43.5887C21.4175 43.5887 27.5964 37.4152 27.5964 29.7977V14.5719C30.5279 16.6661 34.1204 17.8975 38 17.8975V10.4381C36.0475 10.4436 34.1332 9.89504 32.4767 8.86158C30.012 7.32502 28.2357 4.78769 27.7126 1.81627Z" fill="#333333"></path></svg>