<svg xmlns="http://www.w3.org/2000/svg" width="38" height="27" viewBox="0 0 38 27" fill="none"><path d="M38 13.5C38 13.5 38 19.7751 37.2061 22.7833C36.7691 24.4421 35.4811 25.7491 33.8471 26.1925C30.8818 27 18.9973 27 18.9973 27C18.9973 27 7.1155 27 4.1515 26.1925C2.51614 25.7491 1.22957 24.4421 0.792571 22.7833C-4.85352e-07 19.7751 0 13.5 0 13.5C0 13.5 -4.85352e-07 7.22354 0.792571 4.2167C1.22957 2.55657 2.5175 1.24954 4.1515 0.807481C7.1155 -4.07879e-07 18.9973 0 18.9973 0C18.9973 0 30.8818 -4.07879e-07 33.8471 0.807481C35.4798 1.24954 36.7677 2.55657 37.2061 4.2167C38 7.22354 38 13.5 38 13.5ZM25.1804 13.073L15.2489 7.37546C15.0996 7.28923 14.9136 7.28923 14.7644 7.37682C14.6137 7.46442 14.5228 7.62865 14.5228 7.80383V19.1975C14.5228 19.3727 14.6137 19.5356 14.7644 19.6232C14.8404 19.6683 14.9245 19.6902 15.01 19.6902C15.0928 19.6902 15.1769 19.6697 15.2502 19.6259L25.1818 13.9284C25.3324 13.8408 25.4274 13.6766 25.4274 13.5014C25.4247 13.3221 25.3311 13.1606 25.1804 13.073Z" fill="#333333"></path></svg>